<svg version="1" xmlns="http://www.w3.org/2000/svg" width="529.333" height="529.333" viewBox="0 0 397.000000 397.000000"><path d="M182 2.7c-.8.1-8.5 1-17 1.8-16.4 1.6-21.3 2.4-32.3 4.9-3.8.9-7.3 1.4-7.8 1-.5-.3-.9-.1-.9.5 0 .8-4.9 5.8-16.2 16.3-2.1 2-3.8 3.9-3.8 4.3 0 .5-1.1 2.3-2.4 4-1.4 1.8-4.1 6.5-6.1 10.6-4.7 9.5-4.7 11.3.4 58.9 3 28.1 3.7 36.9 2.8 38.5-.6 1.1-1.1 2.4-1.2 2.8 0 .4-.5 1.1-1.2 1.5-1.5.9-1.6 40.3-.1 41.3.5.3 1.2 2.1 1.5 4 .2 1.9 1.1 4.7 1.8 6.4.7 1.6 1.6 4.7 2 6.8.3 2.1 1 3.5 1.5 3.2.5-.3 1.7.8 2.6 2.5 1 1.6 2.6 3 3.6 3 1.4 0 1.8.9 2 3.7.2 5.1.5 7.5 2.2 16.7.9 4.3 1.3 8.3 1 8.7-.3.5-.1.9.5.9s1.3 1.1 1.7 2.5c.3 1.4 1 2.2 1.5 1.9.5-.3.9.1.9 1 0 .8 1.8 3.3 4.1 5.7 2.2 2.3 4.1 5 4.2 6 .1 1 .3 1.6.5 1.4.2-.2 1.5.6 2.9 1.9l2.4 2.3-4.5 20.4c-2.5 11.2-5.7 25.3-7 31.4-1.4 6-2.8 12.5-3.1 14.4-.3 1.9-.8 3.7-1 4.1-.4.7 8.1 13.2 11.3 16.5.6.8 1.2 1.6 1.2 2 0 .6 4.9 7.4 6 8.5.4.3 1.7 2.3 3 4.5s3 4.6 3.7 5.3c.7.7 2 2.6 3 4.2.9 1.7 2.1 3 2.6 3 .4 0 .5.5.2 1-.3.6.1 1.3.9 1.6.9.3 1.6 1.2 1.6 2s.5 1.4 1 1.4c.6 0 1 .5 1 1.1 0 .6.7 1.7 1.5 2.5s1.9 2.3 2.5 3.2c.9 1.5 1.2 1.4 3.5-1.1 1.4-1.5 2.5-2.4 2.5-2 0 .4.7-.1 1.6-1.2.8-1.1 1.8-2 2.2-2 .4 0 1.6-.9 2.7-2 2.2-2.1 6.2-5.5 13.5-11.5 2.4-1.9 5.2-4.4 6.4-5.6 1.2-1.1 3.6-3 5.4-4.3 3.6-2.5 4.6-2.2 10.2 3 1.4 1.3 5 4.4 8 6.9 5.4 4.4 9.8 8.2 14.8 12.7 1.3 1.3 2.8 2 3.3 1.8.4-.3 1.1 0 1.5.6.5.8.3.9-.6.4-.9-.5-1.1-.4-.6.3.4.7 1.4 1.2 2.2 1.2.8 0 1.2.4.9 1-.3.5 0 1 .8 1s1.8.8 2.2 1.7c.5 1.5.9 1.2 2.2-1.5.8-1.7 2-3.2 2.5-3.2s.6-.5.3-1c-.3-.6-.1-1 .4-1 .6 0 1.1-.8 1.1-1.7 0-.9.3-1.3.6-1 .8.7 9-11.3 8.6-12.5-.1-.5.2-.8.7-.8.5 0 2.2-2 3.8-4.5 1.5-2.5 3.2-4.5 3.6-4.5.5 0 .6-.4.2-.9-.3-.5.5-1.7 1.7-2.5 1.2-.9 1.8-1.6 1.3-1.6-.6 0-.6-.3 0-.8.6-.4 1.9-2.1 3.1-3.7 8.5-12.2 11.4-16.8 10.9-17.4-.4-.8-14.1-60.7-15.2-66.8-.4-2.4 0-3.5 1.6-4.9 1.1-1 2.1-2.4 2.1-3.1 0-.7.4-1.3.9-1.3 1.7 0 9.6-8.6 11.4-12.4.9-2 1.7-4.9 1.7-6.4 0-1.6.4-3.2.9-3.8.5-.5 1.3-4.5 1.6-8.9.4-4.4 1.1-8.1 1.5-8.3.4-.2.6-1.2.3-2.2-.3-1.2 0-2 .6-2 .7 0 1.1-.8.9-1.8-.2-1.1.3-1.7 1.5-1.6.9.1 1.7-.2 1.7-.8 0-.5.8-1.8 1.9-2.9 1.7-1.9 4.9-9.7 7.2-17.9 1.3-4.6 1.9-13.1 1.8-26.5 0-13.8-.1-14.4-3.4-22.1-1.3-3-.8-13 1.1-22.9.4-1.7.6-3.7.6-4.5-.1-3.3 3.9-42.1 5.3-51 2.4-16.5 2.4-16-.1-16-1.7 0-2.4-.9-3.3-4.4-.6-2.5-1.1-5.4-1.1-6.5 0-1.7-.5-1.9-3.3-1.4-3.2.5-3.4.3-4.7-3.6-.9-2.8-1.8-4-2.7-3.6-.7.3-1.9.7-2.6 1-1.4.6-9.7-9.3-9.7-11.5 0-.5-.4-1-.8-1-.5 0-2.1-1.7-3.5-3.7s-3.4-3.8-4.4-3.9c-1-.1-5.2-.9-9.3-1.7-4.1-.9-8.8-1.9-10.5-2.2-1.6-.4-6.7-1-11.2-1.5-4.5-.4-8.6-1.1-9.1-1.4-1-.6-43.6-1.5-46.2-.9z"/></svg>